HIERARCHY
ROOT ui
{
	 OFFSET 0 0 0
	 CHANNELS 3 XPosition YPosition Z Position
	 EndSite
	 {
	 OFFSET 0 -1 0
	 }
}
ROOT li
{
	 OFFSET 0 0 0
	 CHANNELS 3 XPosition YPosition Z Position
	 EndSite
	 {
	 OFFSET 0 -1 0
	 }
}
ROOT ul
{
	 OFFSET 0 0 0
	 CHANNELS 3 XPosition YPosition Z Position
	 EndSite
	 {
	 OFFSET 0 -1 0
	 }
}
ROOT ll
{
	 OFFSET 0 0 0
	 CHANNELS 3 XPosition YPosition Z Position
	 EndSite
	 {
	 OFFSET 0 -1 0
	 }
}
ROOT tt
{
	 OFFSET 0 0 0
	 CHANNELS 3 XPosition YPosition Z Position
	 EndSite
	 {
	 OFFSET 0 -1 0
	 }
}
ROOT tb
{
	 OFFSET 0 0 0
	 CHANNELS 3 XPosition YPosition Z Position
	 EndSite
	 {
	 OFFSET 0 -1 0
	 }
}
ROOT td
{
	 OFFSET 0 0 0
	 CHANNELS 3 XPosition YPosition Z Position
	 EndSite
	 {
	 OFFSET 0 -1 0
	 }
}
ROOT v
{
	 OFFSET 0 0 0
	 CHANNELS 3 XPosition YPosition Z Position
	 EndSite
	 {
	 OFFSET 0 -1 0
	 }
}
ROOT bn
{
	 OFFSET 0 0 0
	 CHANNELS 3 XPosition YPosition Z Position
	 EndSite
	 {
	 OFFSET 0 -1 0
	 }
}
MOTION
Frames: 21
Frame Time: 0.002
4.5136800408363345E-4	-0.0013059990406036376	0		0.5043582763671876	-2.350603271484375	0		-1.0117725219726563	-0.017914623260498048	0		-0.6686148071289062	-2.24455517578125	0		1.7694976806640625	-0.3954891357421875	0		3.2722646484375	0.061106395721435544	0		4.6708994140625	0.11574983978271484	0		5.61405517578125	0.1260672378540039	0		-0.26412191772460936	5.885720703125	0		
0.014430590629577637	0.007303812026977539	0		0.48088601684570315	-2.34170361328125	0		-1.03090966796875	-0.019763648986816405	0		-0.7380326538085937	-2.231947998046875	0		1.7903480224609376	-0.39229373168945314	0		3.309919677734375	0.03683536911010742	0		4.67371337890625	0.10557416534423827	0		5.62603759765625	0.13161448669433592	0		-0.21395596313476561	5.89901513671875	0		
0.029325963973999024	0.0038979089260101317	0		0.5343410034179688	-2.344614013671875	0		-0.9590014038085938	-0.021577022552490235	0		-0.6665896606445313	-2.237817138671875	0		1.775285888671875	-0.38472006225585936	0		3.291216796875	0.07015979766845704	0		4.67489453125	0.12642566680908204	0		5.62398974609375	0.13031723022460937	0		-0.08265375518798829	5.92142626953125	0		
0.010352529525756837	0.006860034942626953	0		0.4738989562988281	-2.3443017578125	0		-0.9769471435546875	-0.01544138526916504	0		-0.6839817504882812	-2.234746826171875	0		1.8011722412109374	-0.38857125854492186	0		3.280875732421875	0.03741743850708008	0		4.67575830078125	0.11130469512939453	0		5.6169306640625	0.1221053466796875	0		-0.23289393615722656	5.890841796875	0		
0.008431833267211914	0.006651931762695312	0		0.5165834350585937	-2.342089599609375	0		-0.9769601440429687	-0.02349251937866211	0		-0.6863077392578125	-2.234829345703125	0		1.7791922607421875	-0.38788284301757814	0		3.273170166015625	0.055682926177978515	0		4.6628681640625	0.1113741455078125	0		5.60603125	0.1209826431274414	0		-0.24787104797363282	5.87983251953125	0		
0.01651191520690918	-0.0026538488864898684	0		0.4693253479003906	-2.34486865234375	0		-1.0176919555664063	-0.015079436302185058	0		-0.6806288452148438	-2.24499169921875	0		1.80222509765625	-0.39566482543945314	0		3.288213623046875	0.04173084259033203	0		4.65615771484375	0.11842510986328125	0		5.604232421875	0.11981399536132813	0		-0.23454518127441407	5.890525390625	0		
0.014807289123535156	-0.0028341379165649416	0		0.46723040771484375	-2.345124267578125	0		-1.0563848876953126	-0.013667169570922852	0		-0.7515890502929687	-2.234272705078125	0		1.7604688720703126	-0.3946883850097656	0		3.25982470703125	0.06831031036376953	0		4.667529296875	0.1223236846923828	0		5.60663916015625	0.12665662384033202	0		-0.220143798828125	5.90121533203125	0		
0.010412652969360352	0.013036711692810059	0		0.45840658569335935	-2.33427880859375	0		-1.016933837890625	-0.011132169723510742	0		-0.67756201171875	-2.238188720703125	0		1.7988133544921876	-0.39658880615234376	0		3.27793310546875	0.03940397262573242	0		4.6659697265625	0.12142234802246094	0		5.605080078125	0.12560618591308595	0		-0.22078553771972656	5.90109033203125	0		
0.011781150817871094	-0.00314042592048645	0		0.49044271850585935	-2.34888525390625	0		-1.0224285278320313	-0.015073702812194825	0		-0.7203662719726562	-2.239749755859375	0		1.7573214111328126	-0.39553472900390624	0		3.28572509765625	0.05866221237182617	0		4.65148388671875	0.11572992706298828	0		5.60365283203125	0.12462027740478515	0		-0.2354823455810547	5.88914599609375	0		
0.010469756126403808	-0.0032644829750061036	0		0.4529298400878906	-2.337653076171875	0		-0.990779296875	-0.018440084457397463	0		-0.6979622802734375	-2.23705322265625	0		1.760331787109375	-0.3639567565917969	0		3.2821982421875	0.03909704971313477	0		4.6550947265625	0.10688690185546874	0		5.59826513671875	0.11574801635742188	0		-0.27101156616210936	5.884470703125	0		
-5.969160199165344E-4	0.005750083923339843	0		0.46034613037109373	-2.345923583984375	0		-1.0500238037109375	-0.02371702003479004	0		-0.7733712768554688	-2.231178955078125	0		1.7516790771484374	-0.4002091369628906	0		3.2552099609375	0.05386415481567383	0		4.6539345703125	0.10616065979003907	0		5.59710595703125	0.11489546203613281	0		-0.2713979797363281	5.884404296875	0		
0.00825539779663086	-0.00345290207862854	0		0.4610375671386719	-2.34408837890625	0		-1.0100325317382812	-0.02116374206542969	0		-0.6837685546875	-2.23826318359375	0		1.75668603515625	-0.39258432006835936	0		3.272983154296875	0.03714570617675781	0		4.66106494140625	0.11839786529541016	0		5.605056640625	0.1120036849975586	0		-0.2195476837158203	5.8967265625	0		
0.017469785690307618	0.006360445976257324	0		0.46392059326171875	-2.33925390625	0		-1.0479263916015624	-0.019659168243408204	0		-0.75684326171875	-2.230370361328125	0		1.7557342529296875	-0.3928507080078125	0		3.261410888671875	0.06383587265014648	0		4.66017236328125	0.11779535675048829	0		5.6092724609375	0.12023033905029297	0		-0.22174708557128905	5.898712890625	0		
-0.00331854510307312	0.005560956954956055	0		0.47690615844726564	-2.3385185546875	0		-0.9906495971679687	-0.015305132865905761	0		-0.7009108276367187	-2.235033935546875	0		1.771864013671875	-0.3972886047363281	0		3.26724560546875	0.031363737106323245	0		4.65124755859375	0.10435820770263672	0		5.59852001953125	0.12071632385253907	0		-0.10376279449462891	5.90924169921875	0		
0.005912961006164551	-0.0035870060920715333	0		0.4828890075683594	-2.34967529296875	0		-1.0283050537109375	-0.014777199745178222	0		-0.6939058227539062	-2.24509033203125	0		1.7662440185546875	-0.3914216613769531	0		3.26082763671875	0.05009909057617187	0		4.6457001953125	0.11194967651367188	0		5.602775390625	0.1120945816040039	0		-0.23711685180664063	5.88887548828125	0		
0.005369298934936524	-0.0035958778858184814	0		0.48214422607421875	-2.349724853515625	0		-0.9918524780273438	-0.015158900260925293	0		-0.6946416015625	-2.245039306640625	0		1.767542236328125	-0.4016055908203125	0		3.27011328125	0.03568756484985352	0		4.65006591796875	0.10348133087158203	0		5.5932421875	0.11171818542480469	0		-0.27122760009765623	5.88331201171875	0		
-0.0049560899734497075	0.005535196781158447	0		0.4565909423828125	-2.344441650390625	0		-1.0503507080078125	-0.01934834861755371	0		-0.7620957641601562	-2.232139892578125	0		1.7701226806640624	-0.3977716064453125	0		3.269940673828125	0.05644329071044922	0		4.64963525390625	0.10313349914550782	0		5.596912109375	0.11924761199951171	0		-0.22202093505859374	5.89872314453125	0		
0.011661151885986328	0.0023415069580078125	0		0.5100224914550782	-2.3501328125	0		-0.9885872802734375	-0.011040634155273437	0		-0.6886582641601563	-2.238001708984375	0		1.7697520751953124	-0.3978700561523438	0		3.26933544921875	0.03524599456787109	0		4.6443994140625	0.11090449523925781	0		5.596576171875	0.11889267730712891	0		-0.22196949768066407	5.89875830078125	0		
0.004326425075531006	-0.003538156032562256	0		0.4536693115234375	-2.346421142578125	0		-1.0668790283203125	-0.012962688446044921	0		-0.6910726318359375	-2.239904541015625	0		1.7694696044921876	-0.3979408874511719	0		3.29025390625	0.0488209228515625	0		4.649044921875	0.1026042251586914	0		5.6012216796875	0.11053717803955078	0		-0.08860594940185547	5.920115234375	0		
-0.005744682788848877	0.005629288196563721	0		0.498401611328125	-2.343975341796875	0		-0.9930846557617188	-0.01481022834777832	0		-0.7063302612304687	-2.236638427734375	0		1.7662130126953124	-0.4019486999511719	0		3.263983154296875	0.042030784606933595	0		4.64886328125	0.10241554260253906	0		5.59204150390625	0.11041593170166016	0		-0.2378946075439453	5.89005908203125	0		
-0.02198292350769043	-0.0031174750328063967	0		0.4261719055175781	-2.34402880859375	0		-1.06719140625	-0.012776201248168945	0		-0.6966514892578125	-2.24468798828125	0		1.7660714111328124	-0.40197445678710936	0		3.25488623046875	0.04405721282958985	0		4.64874267578125	0.1022694091796875	0		5.59192138671875	0.11023040771484376	0		-0.27086016845703126	5.8835390625	0		
